<?xml version="1.0" encoding="UTF-8" standalone="no"?>
<!DOCTYPE svg PUBLIC "-//W3C//DTD SVG 1.1//EN"
 "http://www.w3.org/Graphics/SVG/1.1/DTD/svg11.dtd">
<!-- Generated by graphviz version 12.2.0 (20241103.1931)
 -->
<!-- Title: BPMN Pages: 1 -->
<svg width="924pt" height="143pt"
 viewBox="0.00 0.00 924.29 143.00" xmlns="http://www.w3.org/2000/svg" xmlns:xlink="http://www.w3.org/1999/xlink">
<g id="graph0" class="graph" transform="scale(1 1) rotate(0) translate(4 139)">
<title>BPMN</title>
<polygon fill="white" stroke="none" points="-4,4 -4,-139 920.29,-139 920.29,4 -4,4"/>
<!-- Start -->
<g id="node1" class="node">
<title>Start</title>
<polygon fill="none" stroke="black" points="83.5,-56 0,-56 0,-20 83.5,-20 83.5,-56"/>
<text text-anchor="middle" x="41.75" y="-32.95" font-family="Times New Roman,serif" font-size="14.00">Login Event</text>
</g>
<!-- IdentityVerification -->
<g id="node2" class="node">
<title>IdentityVerification</title>
<polygon fill="none" stroke="black" points="245.25,-56 120.5,-56 120.5,-20 245.25,-20 245.25,-56"/>
<text text-anchor="middle" x="182.88" y="-32.95" font-family="Times New Roman,serif" font-size="14.00">Identity Verification</text>
</g>
<!-- Start&#45;&gt;IdentityVerification -->
<g id="edge1" class="edge">
<title>Start&#45;&gt;IdentityVerification</title>
<path fill="none" stroke="black" d="M83.74,-38C91.65,-38 100.16,-38 108.75,-38"/>
<polygon fill="black" stroke="black" points="108.52,-41.5 118.52,-38 108.52,-34.5 108.52,-41.5"/>
</g>
<!-- SuccessDecision -->
<g id="node3" class="node">
<title>SuccessDecision</title>
<polygon fill="none" stroke="black" points="344.74,-56 282.25,-38 344.74,-20 407.23,-38 344.74,-56"/>
<text text-anchor="middle" x="344.74" y="-32.95" font-family="Times New Roman,serif" font-size="14.00">Success?</text>
</g>
<!-- IdentityVerification&#45;&gt;SuccessDecision -->
<g id="edge2" class="edge">
<title>IdentityVerification&#45;&gt;SuccessDecision</title>
<path fill="none" stroke="black" d="M245.68,-38C253.36,-38 261.27,-38 269.11,-38"/>
<polygon fill="black" stroke="black" points="269,-41.5 279,-38 269,-34.5 269,-41.5"/>
</g>
<!-- FailureDecision -->
<g id="node4" class="node">
<title>FailureDecision</title>
<polygon fill="none" stroke="black" points="521.62,-82 463.48,-64 521.62,-46 579.77,-64 521.62,-82"/>
<text text-anchor="middle" x="521.62" y="-58.95" font-family="Times New Roman,serif" font-size="14.00">Failure?</text>
</g>
<!-- SuccessDecision&#45;&gt;FailureDecision -->
<g id="edge4" class="edge">
<title>SuccessDecision&#45;&gt;FailureDecision</title>
<path fill="none" stroke="black" d="M387.18,-44.16C411.91,-47.84 443.49,-52.53 469.72,-56.43"/>
<polygon fill="black" stroke="black" points="469.08,-59.87 479.48,-57.88 470.1,-52.95 469.08,-59.87"/>
<text text-anchor="middle" x="435.35" y="-55.76" font-family="Times New Roman,serif" font-size="14.00">No</text>
</g>
<!-- EnterPanel -->
<g id="node5" class="node">
<title>EnterPanel</title>
<polygon fill="none" stroke="black" points="676.77,-36 597.77,-36 597.77,0 676.77,0 676.77,-36"/>
<text text-anchor="middle" x="637.27" y="-12.95" font-family="Times New Roman,serif" font-size="14.00">Enter Panel</text>
</g>
<!-- SuccessDecision&#45;&gt;EnterPanel -->
<g id="edge3" class="edge">
<title>SuccessDecision&#45;&gt;EnterPanel</title>
<path fill="none" stroke="black" d="M390.68,-32.78C401.95,-31.59 414.02,-30.4 425.23,-29.5 480.17,-25.07 543.31,-21.88 586.1,-20"/>
<polygon fill="black" stroke="black" points="585.98,-23.51 595.82,-19.58 585.68,-16.51 585.98,-23.51"/>
<text text-anchor="middle" x="435.35" y="-32.7" font-family="Times New Roman,serif" font-size="14.00">Yes</text>
</g>
<!-- ReturnToLoginPage -->
<g id="node6" class="node">
<title>ReturnToLoginPage</title>
<polygon fill="none" stroke="black" points="827.77,-135 694.77,-135 694.77,-99 827.77,-99 827.77,-135"/>
<text text-anchor="middle" x="761.27" y="-111.95" font-family="Times New Roman,serif" font-size="14.00">Return to Login Page</text>
</g>
<!-- FailureDecision&#45;&gt;ReturnToLoginPage -->
<g id="edge5" class="edge">
<title>FailureDecision&#45;&gt;ReturnToLoginPage</title>
<path fill="none" stroke="black" d="M556.67,-71.59C589.54,-78.92 640.47,-90.28 683.17,-99.81"/>
<polygon fill="black" stroke="black" points="682.4,-103.22 692.92,-101.98 683.92,-96.39 682.4,-103.22"/>
<text text-anchor="middle" x="637.27" y="-101.54" font-family="Times New Roman,serif" font-size="14.00">Yes</text>
</g>
<!-- End -->
<g id="node7" class="node">
<title>End</title>
<ellipse fill="none" stroke="black" cx="890.53" cy="-64" rx="25.76" ry="25.76"/>
<text text-anchor="middle" x="890.53" y="-58.95" font-family="Times New Roman,serif" font-size="14.00">End</text>
</g>
<!-- FailureDecision&#45;&gt;End -->
<g id="edge6" class="edge">
<title>FailureDecision&#45;&gt;End</title>
<path fill="none" stroke="black" d="M581.17,-64C657.76,-64 789.69,-64 853.24,-64"/>
<polygon fill="black" stroke="black" points="853.13,-67.5 863.13,-64 853.13,-60.5 853.13,-67.5"/>
<text text-anchor="middle" x="761.27" y="-67.2" font-family="Times New Roman,serif" font-size="14.00">No</text>
</g>
<!-- EnterPanel&#45;&gt;End -->
<g id="edge7" class="edge">
<title>EnterPanel&#45;&gt;End</title>
<path fill="none" stroke="black" d="M677.18,-20.46C715.8,-23.47 776.48,-29.77 827.77,-42 836.88,-44.17 846.51,-47.22 855.39,-50.36"/>
<polygon fill="black" stroke="black" points="854.12,-53.62 864.72,-53.79 856.54,-47.05 854.12,-53.62"/>
</g>
<!-- ReturnToLoginPage&#45;&gt;End -->
<g id="edge8" class="edge">
<title>ReturnToLoginPage&#45;&gt;End</title>
<path fill="none" stroke="black" d="M806.42,-98.61C822.6,-91.88 840.63,-84.37 855.75,-78.07"/>
<polygon fill="black" stroke="black" points="856.9,-81.38 864.79,-74.3 854.21,-74.92 856.9,-81.38"/>
</g>
</g>
</svg>
